<?xml version="1.0" encoding="UTF-8"?>
<svg version="1.1" xmlns="http://www.w3.org/2000/svg" width="512" height="512">
<path d="M0 0 C12.58040107 9.8162771 20.42924377 22.764537 28.3984375 36.328125 C31.26196535 41.19421514 34.23901784 45.97872264 37.26953125 50.7421875 C38.2708904 52.31897418 39.27219119 53.89579792 40.2734375 55.47265625 C40.78793457 56.2826709 41.30243164 57.09268555 41.83251953 57.92724609 C50.90337464 72.2492184 59.81051307 86.67286948 68.67993164 101.12011719 C73.10039374 108.31181699 77.57475964 115.4663147 82.09716797 122.59423828 C85.69266659 128.26616469 89.24064614 133.96610218 92.76953125 139.6796875 C97.43600749 147.23460114 102.12354958 154.77587533 106.83203125 162.3046875 C107.45899902 163.30733643 108.0859668 164.30998535 108.73193359 165.34301758 C111.87909039 170.37452344 115.02856468 175.40457094 118.1796875 180.43359375 C126.08188821 193.05155688 133.92801719 205.70260602 141.7109375 218.39453125 C144.03717002 222.1879066 146.37616463 225.97252167 148.734375 229.74609375 C162.19342175 251.34597618 169.02137357 272.09748224 163.421875 297.6796875 C158.84140733 315.77902532 147.54370882 332.04267885 131.95703125 342.3671875 C117.56383634 350.91314698 103.51159171 354.64577789 86.8581543 354.63262939 C85.68275904 354.63560052 84.50736378 354.63857164 83.29635048 354.6416328 C80.04187186 354.64879667 76.78742545 354.65149084 73.53294015 354.65223026 C70.0194466 354.65408566 66.50596438 354.66163554 62.99247742 354.66836548 C55.31238714 354.68193096 47.6323021 354.68797104 39.95220184 354.69237614 C35.15223582 354.69514219 30.3522718 354.69938026 25.55230713 354.70388031 C12.25048957 354.71607181 -1.05132639 354.7263706 -14.35314941 354.7297554 C-15.20405647 354.72997497 -16.05496353 354.73019453 -16.93165565 354.73042075 C-17.78455058 354.73063903 -18.63744552 354.73085731 -19.51618576 354.7310822 C-21.24435171 354.73152566 -22.97251765 354.73197222 -24.70068359 354.73242188 C-25.55790591 354.7326433 -26.41512822 354.73286473 -27.29832697 354.73309287 C-41.17537748 354.73703735 -55.05237537 354.75448121 -68.92940557 354.7777814 C-83.19268173 354.80153579 -97.45593154 354.81395915 -111.71922779 354.81512332 C-119.7210203 354.81603791 -127.72274427 354.82173536 -135.72451782 354.83994293 C-142.54106982 354.85539935 -149.35753211 354.86043197 -156.17409831 354.85220483 C-159.64724903 354.84831751 -163.12021941 354.84913294 -166.59334755 354.86326218 C-193.96047698 354.95574259 -216.26175085 351.43023758 -236.54296875 331.4921875 C-237.48462891 330.56986328 -237.48462891 330.56986328 -238.4453125 329.62890625 C-252.25401286 315.0060875 -257.93307815 295.26227908 -257.7578125 275.53515625 C-256.8835619 253.00555534 -244.4281382 234.89325063 -232.73828125 216.53125 C-229.52693416 211.48148035 -226.37328669 206.39730988 -223.23046875 201.3046875 C-218.56429152 193.74959038 -213.87644924 186.20849778 -209.16796875 178.6796875 C-208.22751709 177.17571411 -208.22751709 177.17571411 -207.26806641 175.64135742 C-204.12090961 170.60985156 -200.97143532 165.57980406 -197.8203125 160.55078125 C-190.59972253 149.02062418 -183.43701793 137.45700712 -176.31933594 125.86303711 C-171.8990937 118.67175951 -167.42498607 111.5176595 -162.90283203 104.39013672 C-159.30733341 98.71821031 -155.75935386 93.01827282 -152.23046875 87.3046875 C-145.68730956 76.71146896 -139.09046649 66.15232583 -132.48535156 55.59765625 C-130.48986751 52.4072896 -128.49658149 49.21555918 -126.50390625 46.0234375 C-125.50883057 44.4297937 -125.50883057 44.4297937 -124.49365234 42.80395508 C-123.23844373 40.79357903 -121.98353652 38.78301476 -120.72900391 36.7722168 C-119.00380002 34.01001169 -117.27438638 31.25050138 -115.54296875 28.4921875 C-114.93485352 27.52055664 -114.32673828 26.54892578 -113.70019531 25.54785156 C-101.44893764 6.10151464 -85.60667522 -8.05203041 -62.89575195 -13.47583008 C-40.84870374 -17.91613809 -18.15561018 -13.31241655 0 0 Z " fill="#404750" transform="translate(309.54296875,79.5078125)"/>
<path d="M0 0 C12.58040107 9.8162771 20.42924377 22.764537 28.3984375 36.328125 C31.26196535 41.19421514 34.23901784 45.97872264 37.26953125 50.7421875 C38.2708904 52.31897418 39.27219119 53.89579792 40.2734375 55.47265625 C40.78793457 56.2826709 41.30243164 57.09268555 41.83251953 57.92724609 C50.90337464 72.2492184 59.81051307 86.67286948 68.67993164 101.12011719 C73.10039374 108.31181699 77.57475964 115.4663147 82.09716797 122.59423828 C85.69266659 128.26616469 89.24064614 133.96610218 92.76953125 139.6796875 C97.43600749 147.23460114 102.12354958 154.77587533 106.83203125 162.3046875 C107.45899902 163.30733643 108.0859668 164.30998535 108.73193359 165.34301758 C111.87909039 170.37452344 115.02856468 175.40457094 118.1796875 180.43359375 C126.08188821 193.05155688 133.92801719 205.70260602 141.7109375 218.39453125 C144.03717002 222.1879066 146.37616463 225.97252167 148.734375 229.74609375 C162.19342175 251.34597618 169.02137357 272.09748224 163.421875 297.6796875 C158.84140733 315.77902532 147.54370882 332.04267885 131.95703125 342.3671875 C117.56383634 350.91314698 103.51159171 354.64577789 86.8581543 354.63262939 C85.68275904 354.63560052 84.50736378 354.63857164 83.29635048 354.6416328 C80.04187186 354.64879667 76.78742545 354.65149084 73.53294015 354.65223026 C70.0194466 354.65408566 66.50596438 354.66163554 62.99247742 354.66836548 C55.31238714 354.68193096 47.6323021 354.68797104 39.95220184 354.69237614 C35.15223582 354.69514219 30.3522718 354.69938026 25.55230713 354.70388031 C12.25048957 354.71607181 -1.05132639 354.7263706 -14.35314941 354.7297554 C-15.20405647 354.72997497 -16.05496353 354.73019453 -16.93165565 354.73042075 C-17.78455058 354.73063903 -18.63744552 354.73085731 -19.51618576 354.7310822 C-21.24435171 354.73152566 -22.97251765 354.73197222 -24.70068359 354.73242188 C-25.55790591 354.7326433 -26.41512822 354.73286473 -27.29832697 354.73309287 C-41.17537748 354.73703735 -55.05237537 354.75448121 -68.92940557 354.7777814 C-83.19268173 354.80153579 -97.45593154 354.81395915 -111.71922779 354.81512332 C-119.7210203 354.81603791 -127.72274427 354.82173536 -135.72451782 354.83994293 C-142.54106982 354.85539935 -149.35753211 354.86043197 -156.17409831 354.85220483 C-159.64724903 354.84831751 -163.12021941 354.84913294 -166.59334755 354.86326218 C-193.96047698 354.95574259 -216.26175085 351.43023758 -236.54296875 331.4921875 C-237.48462891 330.56986328 -237.48462891 330.56986328 -238.4453125 329.62890625 C-252.25401286 315.0060875 -257.93307815 295.26227908 -257.7578125 275.53515625 C-256.8835619 253.00555534 -244.4281382 234.89325063 -232.73828125 216.53125 C-229.52693416 211.48148035 -226.37328669 206.39730988 -223.23046875 201.3046875 C-218.56429152 193.74959038 -213.87644924 186.20849778 -209.16796875 178.6796875 C-208.22751709 177.17571411 -208.22751709 177.17571411 -207.26806641 175.64135742 C-204.12090961 170.60985156 -200.97143532 165.57980406 -197.8203125 160.55078125 C-190.59972253 149.02062418 -183.43701793 137.45700712 -176.31933594 125.86303711 C-171.8990937 118.67175951 -167.42498607 111.5176595 -162.90283203 104.39013672 C-159.30733341 98.71821031 -155.75935386 93.01827282 -152.23046875 87.3046875 C-145.68730956 76.71146896 -139.09046649 66.15232583 -132.48535156 55.59765625 C-130.48986751 52.4072896 -128.49658149 49.21555918 -126.50390625 46.0234375 C-125.50883057 44.4297937 -125.50883057 44.4297937 -124.49365234 42.80395508 C-123.23844373 40.79357903 -121.98353652 38.78301476 -120.72900391 36.7722168 C-119.00380002 34.01001169 -117.27438638 31.25050138 -115.54296875 28.4921875 C-114.93485352 27.52055664 -114.32673828 26.54892578 -113.70019531 25.54785156 C-101.44893764 6.10151464 -85.60667522 -8.05203041 -62.89575195 -13.47583008 C-40.84870374 -17.91613809 -18.15561018 -13.31241655 0 0 Z M-70.45068359 42.84936523 C-74.11504975 47.47792575 -77.08974082 52.48899576 -80.10546875 57.5546875 C-80.79895205 58.70297429 -81.49355561 59.85058517 -82.18920898 60.99755859 C-83.25891216 62.76149007 -84.3279812 64.52576727 -85.39369202 66.29211426 C-88.90217771 72.10611009 -92.49653939 77.86506981 -96.10546875 83.6171875 C-97.34767052 85.60155357 -98.58985803 87.58592856 -99.83203125 89.5703125 C-101.68693784 92.53074732 -103.5421992 95.49095962 -105.39746094 98.45117188 C-112.55478875 109.87428213 -119.67760419 121.31672395 -126.73046875 132.8046875 C-132.25710738 141.80547777 -137.84532591 150.76284973 -143.5 159.68359375 C-153.04739989 174.75132101 -162.43340534 189.91862284 -171.76586914 205.12011719 C-175.71290328 211.54159169 -179.69401126 217.93906401 -183.73046875 224.3046875 C-204.86057278 253.17949207 -204.86057278 253.17949207 -211.54296875 286.4921875 C-210.38931823 290.25471576 -208.76559085 293.2604083 -206.54296875 296.4921875 C-205.84171875 297.5646875 -205.14046875 298.6371875 -204.41796875 299.7421875 C-198.11762573 305.76860256 -190.44313237 309.60509218 -181.69581604 309.62920189 C-180.22671909 309.6368137 -180.22671909 309.6368137 -178.72794342 309.64457929 C-177.65442375 309.64507705 -176.58090408 309.64557481 -175.47485352 309.64608765 C-174.33242439 309.6504699 -173.18999527 309.65485215 -172.01294708 309.6593672 C-168.8413053 309.67042298 -165.66969134 309.67697691 -162.49803472 309.68154836 C-159.07724721 309.68751152 -155.6564778 309.69911969 -152.23570251 309.70983887 C-143.97325028 309.7343483 -135.71079206 309.74898879 -127.44831467 309.76189893 C-125.11350211 309.76561222 -122.77869014 309.76958535 -120.44387817 309.7736516 C-105.93680412 309.79889178 -91.4297291 309.82093917 -76.92263794 309.83337975 C-73.56317135 309.83630932 -70.20370479 309.839271 -66.84423828 309.84228516 C-65.59180875 309.84340423 -65.59180875 309.84340423 -64.31407762 309.84454592 C-50.79763416 309.85719121 -37.2813225 309.89040384 -23.76494062 309.93208699 C-9.87916279 309.97455721 4.00654766 309.99808073 17.89239025 310.00330031 C25.68517591 310.00670889 33.4777557 310.01839836 41.27047729 310.05140305 C47.90930893 310.07947491 54.54789248 310.09037182 61.18677884 310.07920758 C64.57080314 310.07403864 67.95388979 310.0795455 71.33790779 310.10167313 C75.0167163 310.12441339 78.69423047 310.11604501 82.37304688 310.10018921 C83.42872077 310.1140713 84.48439466 310.12795338 85.57205868 310.14225614 C94.38931458 310.04906485 102.7730404 307.55808482 109.89453125 302.1796875 C116.36573258 295.39281781 119.81366486 288.23011406 119.89453125 278.8046875 C119.92740234 278.14791016 119.96027344 277.49113281 119.99414062 276.81445312 C120.09416896 267.40269654 114.01717514 259.4890281 109.08203125 251.8671875 C108.01757017 250.20224406 106.95380114 248.53685801 105.890625 246.87109375 C105.3322998 245.99855957 104.77397461 245.12602539 104.19873047 244.22705078 C101.14951982 239.43909764 98.14866924 234.62100031 95.14453125 229.8046875 C93.86594859 227.75647098 92.58730224 225.70829422 91.30859375 223.66015625 C90.67083008 222.63841309 90.03306641 221.61666992 89.37597656 220.56396484 C87.49655118 217.55544956 85.61405929 214.54887771 83.73046875 211.54296875 C76.5102066 200.01601694 69.34956638 188.45454089 62.23339844 176.86303711 C57.8131562 169.67175951 53.33904857 162.5176595 48.81689453 155.39013672 C45.22139591 149.71821031 41.67341636 144.01827282 38.14453125 138.3046875 C33.47805501 130.74977386 28.79051292 123.20849967 24.08203125 115.6796875 C23.45506348 114.67703857 22.8280957 113.67438965 22.18212891 112.64135742 C19.03497211 107.60985156 15.88549782 102.57980406 12.734375 97.55078125 C11.49590362 95.57303572 10.25762236 93.59517111 9.01953125 91.6171875 C8.10312866 90.15333618 8.10312866 90.15333618 7.16821289 88.65991211 C3.83616533 83.32837465 0.5243091 77.98501969 -2.76171875 72.625 C-3.11500748 72.04908112 -3.4682962 71.47316223 -3.83229065 70.87979126 C-5.52951583 68.11217485 -7.22389417 65.34288251 -8.91381836 62.57080078 C-19.1420152 43.80283494 -19.1420152 43.80283494 -36.01953125 31.93359375 C-50.29622715 29.43627698 -60.81303029 31.73994655 -70.45068359 42.84936523 Z " fill="#FED300" transform="translate(309.54296875,79.5078125)"/>
<path d="M0 0 C5.01006369 3.1104533 8.81989152 8.13132356 10.17570877 13.90948677 C10.38504223 16.41211703 10.41415473 18.85065894 10.36962891 21.36157227 C10.37693024 22.29613251 10.38423157 23.23069275 10.39175415 24.193573 C10.407852 27.25611046 10.38084823 30.31649311 10.3515625 33.37890625 C10.35052398 35.52164203 10.35156448 37.66437974 10.35458374 39.80711365 C10.35440481 44.28665811 10.33365178 48.76547884 10.29736328 53.24487305 C10.25196198 58.97358012 10.2509108 64.70123237 10.26439857 70.43006992 C10.27109537 74.85089926 10.25778631 79.27149008 10.23814011 83.69227409 C10.23046752 85.80408415 10.2281266 87.9159208 10.2313118 90.02774239 C10.2320573 92.9832794 10.20670147 95.93748609 10.17431641 98.89282227 C10.17927124 99.75694229 10.18422607 100.62106232 10.18933105 101.5113678 C10.06744085 108.51498667 8.2719748 113.98339635 3.1875 118.9375 C-3.09448305 122.92119657 -9.05857273 123.60239829 -16.375 122.5625 C-22.49289054 120.10086357 -25.68922613 116.68796424 -28.51719475 110.86631775 C-29.99305995 106.90256905 -29.94002465 103.06585441 -29.90844727 98.87695312 C-29.91706284 97.94253891 -29.92567841 97.00812469 -29.93455505 96.0453949 C-29.95712978 92.97789259 -29.9504922 89.91131009 -29.94140625 86.84375 C-29.94664523 84.69958222 -29.95292271 82.55541675 -29.96018982 80.41125488 C-29.9705781 75.92591476 -29.96605445 71.44089221 -29.95141602 66.95556641 C-29.93422246 61.21892078 -29.95773951 55.48327624 -29.99290562 49.74674225 C-30.01490535 45.3216493 -30.01343197 40.89679501 -30.0051403 36.47166443 C-30.00432237 34.3570394 -30.01115552 32.24239658 -30.02591133 30.12782288 C-30.04340648 27.16727799 -30.02877343 24.20852112 -30.00610352 21.24804688 C-30.01779572 20.3823558 -30.02948792 19.51666473 -30.04153442 18.6247406 C-29.94622327 12.48147611 -28.32528146 8.30034828 -24.375 3.5625 C-17.52803911 -2.65260038 -8.54293597 -3.53500799 0 0 Z " fill="#FED300" transform="translate(273.375,170.4375)"/>
<path d="M0 0 C7.69730501 5.525226 12.60508569 12.41979288 14.83984375 21.69921875 C16.65293096 32.97489444 14.57360022 42.93186406 7.91015625 52.21484375 C2.00694575 59.45148533 -5.50513782 63.76346014 -14.75 65.25 C-26.30898316 66.17329819 -35.72067009 63.61557622 -44.75 56.25 C-51.1955645 50.26380758 -55.25280895 42.19184063 -55.98828125 33.40234375 C-56.24963271 22.08169885 -53.70082833 12.58466142 -45.75 4.25 C-32.7080879 -7.43725321 -15.00394881 -9.38374056 0 0 Z " fill="#06CC65" transform="translate(463.75,73.75)"/>
<path d="M0 0 C7.35083517 5.1574408 12.18326121 11.13498757 14 20 C14.83558865 29.30395823 13.34407721 36.56038752 7.3125 43.8125 C2.15345044 49.25657992 -3.7377793 52.52739987 -11.26171875 53.203125 C-21.21953004 53.39554647 -27.75556326 51.09585029 -35.05078125 44.1953125 C-40.79913101 37.72121918 -42.37517358 30.57690683 -42.2734375 22.1328125 C-41.55951324 13.95328021 -37.03272104 7.38679333 -31 2 C-21.66384858 -4.03795961 -10.02479516 -5.24023384 0 0 Z " fill="#06CC65" transform="translate(85,171)"/>
<path d="M0 0 C4.62975904 2.77979256 7.59857188 6.58517838 9.625 11.5625 C10.74970529 18.14635176 10.24765361 24.14174634 6.828125 29.9453125 C3.82570099 33.98103827 0.28984937 35.95579356 -4.375 37.5625 C-10.55271253 38.45982137 -15.95385136 38.36545149 -21.375 35.0625 C-26.52772785 31.04131493 -28.87503376 27.12956686 -29.78125 20.6640625 C-30.08129592 14.70815108 -29.60378179 10.09877849 -25.97265625 5.25390625 C-18.93046498 -2.20151874 -9.62557743 -3.98299756 0 0 Z " fill="#FDD200" transform="translate(273.375,320.4375)"/>
<path d="M0 0 C4.0743356 0.84881992 5.54405875 2.30225596 8 5.625 C8.625 8.625 8.625 8.625 8 11.625 C5.54405875 14.94774404 4.0743356 16.40118008 0 17.25 C-4.0743356 16.40118008 -5.54405875 14.94774404 -8 11.625 C-8.625 8.625 -8.625 8.625 -8 5.625 C-5.54405875 2.30225596 -4.0743356 0.84881992 0 0 Z " fill="#D94455" transform="translate(336,462.375)"/>
<path d="M0 0 C4.0743356 0.84881992 5.54405875 2.30225596 8 5.625 C8.625 8.625 8.625 8.625 8 11.625 C5.54405875 14.94774404 4.0743356 16.40118008 0 17.25 C-4.0743356 16.40118008 -5.54405875 14.94774404 -8 11.625 C-8.625 8.625 -8.625 8.625 -8 5.625 C-5.54405875 2.30225596 -4.0743356 0.84881992 0 0 Z " fill="#D94455" transform="translate(41,432.375)"/>
<path d="M0 0 C4.0743356 0.84881992 5.54405875 2.30225596 8 5.625 C8.625 8.625 8.625 8.625 8 11.625 C5.54405875 14.94774404 4.0743356 16.40118008 0 17.25 C-4.0743356 16.40118008 -5.54405875 14.94774404 -8 11.625 C-8.625 8.625 -8.625 8.625 -8 5.625 C-5.54405875 2.30225596 -4.0743356 0.84881992 0 0 Z " fill="#D94455" transform="translate(436,187.375)"/>
<path d="M0 0 C4.0743356 0.84881992 5.54405875 2.30225596 8 5.625 C8.625 8.625 8.625 8.625 8 11.625 C5.54405875 14.94774404 4.0743356 16.40118008 0 17.25 C-4.0743356 16.40118008 -5.54405875 14.94774404 -8 11.625 C-8.625 8.625 -8.625 8.625 -8 5.625 C-5.54405875 2.30225596 -4.0743356 0.84881992 0 0 Z " fill="#D94455" transform="translate(366,62.375)"/>
<path d="M0 0 C4.0743356 0.84881992 5.54405875 2.30225596 8 5.625 C8.625 8.625 8.625 8.625 8 11.625 C5.54405875 14.94774404 4.0743356 16.40118008 0 17.25 C-4.0743356 16.40118008 -5.54405875 14.94774404 -8 11.625 C-8.625 8.625 -8.625 8.625 -8 5.625 C-5.54405875 2.30225596 -4.0743356 0.84881992 0 0 Z " fill="#D94455" transform="translate(181,32.375)"/>
</svg>
